Coordinates
version=1
nRows=49
nColumns=12
inDegrees=yes

Units are S.I. units (second, meters, Newtons, ...)
Angles are in degrees

endheader
time	SC_y	SC_z	SC_x	AC_y	AC_z	AC_x	GH_y	GH_z	GH_yy	EL_x	PS_y
       0.0              -56.26          35.32          44.86          51.22         -17.24         -11.66         -137.1          22.94          167.3          131.2          49.27
   0.04089              -56.26          35.32          44.86          51.22         -17.24         -11.66         -137.1          22.94          167.3          131.2          49.26
   0.08179              -56.25          35.31          44.86          51.22         -17.24         -11.66         -137.1          22.94          167.3          131.2          49.26
    0.1227              -56.25          35.31          44.86          51.22         -17.24         -11.66         -137.1          22.95          167.3          131.1          49.25
    0.1636              -56.24           35.3          44.86          51.22         -17.24         -11.65         -137.1          22.95          167.3          131.1          49.25
    0.2045              -56.23           35.3          44.86          51.22         -17.23         -11.65         -137.0          22.95          167.3          131.1          49.24
    0.2454              -56.23          35.29          44.86          51.22         -17.23         -11.65         -137.0          22.96          167.3          131.1          49.23
    0.2862              -56.22          35.28          44.86          51.22         -17.23         -11.65         -137.0          22.96          167.3          131.1          49.23
    0.3271              -56.21          35.27          44.86          51.22         -17.23         -11.65         -137.0          22.97          167.3          131.1          49.22
     0.368              -56.21          35.27          44.86          51.22         -17.23         -11.65         -136.9          22.97          167.2          131.1          49.21
    0.4089               -56.2          35.26          44.86          51.22         -17.23         -11.64         -136.9          22.98          167.2          131.1           49.2
    0.4498              -56.19          35.25          44.86          51.22         -17.22         -11.64         -136.9          22.99          167.2          131.1          49.19
    0.4907              -56.18          35.24          44.86          51.22         -17.22         -11.64         -136.9          22.99          167.2          131.1          49.18
    0.5316              -56.17          35.23          44.86          51.22         -17.22         -11.64         -136.8           23.0          167.2          131.0          49.17
    0.5725              -56.16          35.21          44.86          51.22         -17.22         -11.64         -136.8          23.01          167.2          131.0          49.16
    0.6134              -56.15           35.2          44.86          51.22         -17.22         -11.63         -136.7          23.02          167.2          131.0          49.15
    0.6543              -56.13          35.19          44.86          51.22         -17.21         -11.63         -136.7          23.03          167.2          131.0          49.14
    0.6952              -56.12          35.17          44.86          51.22         -17.21         -11.63         -136.6          23.04          167.2          131.0          49.12
    0.7361               -56.1          35.15          44.86          51.21         -17.21         -11.62         -136.6          23.05          167.1          130.9          49.11
     0.777              -56.08          35.13          44.86          51.21          -17.2         -11.62         -136.5          23.06          167.1          130.9          49.09
    0.8179              -56.07          35.11          44.86          51.21          -17.2         -11.61         -136.5          23.07          167.1          130.9          49.07
    0.8587              -56.04          35.09          44.86          51.21          -17.2         -11.61         -136.4          23.09          167.1          130.9          49.05
    0.8996              -56.02          35.07          44.86          51.21         -17.19          -11.6         -136.3           23.1          167.1          130.8          49.03
    0.9405               -56.0          35.04          44.86          51.21         -17.19          -11.6         -136.2          23.12          167.0          130.8           49.0
    0.9814              -55.97          35.01          44.86          51.21         -17.18         -11.59         -136.1          23.14          167.0          130.8          48.97
     1.022              -55.94          34.97          44.86          51.21         -17.17         -11.59         -136.0          23.17          167.0          130.7          48.94
     1.063               -55.9          34.94          44.86           51.2         -17.17         -11.58         -135.9          23.19          167.0          130.7           48.9
     1.104              -55.86          34.89          44.86           51.2         -17.16         -11.57         -135.7          23.22          166.9          130.6          48.86
     1.145              -55.81          34.84          44.86           51.2         -17.15         -11.56         -135.6          23.25          166.9          130.5          48.82
     1.186              -55.76          34.79          44.86           51.2         -17.14         -11.55         -135.4          23.29          166.8          130.5          48.77
     1.227               -55.7          34.73          44.86          51.19         -17.13         -11.53         -135.2          23.33          166.8          130.4          48.71
     1.268              -55.64          34.65          44.86          51.19         -17.11         -11.52         -134.9          23.38          166.7          130.3          48.64
     1.309              -55.56          34.57          44.86          51.19          -17.1          -11.5         -134.7          23.43          166.6          130.2          48.56
     1.349              -55.47          34.47          44.86          51.18         -17.08         -11.48         -134.4           23.5          166.5          130.1          48.47
      1.39              -55.36          34.36          44.86          51.18         -17.06         -11.46         -134.0          23.57          166.4          129.9          48.37
     1.431              -55.24          34.22          44.86          51.17         -17.03         -11.43         -133.6          23.66          166.3          129.7          48.24
     1.472              -55.09          34.06          44.86          51.16          -17.0         -11.39         -133.0          23.76          166.2          129.5          48.09
     1.513              -54.91          33.87          44.86          51.15         -16.97         -11.35         -132.4          23.89          166.0          129.3          47.91
     1.554               -54.7          33.64          44.86          51.14         -16.92          -11.3         -131.7          24.04          165.8          129.0           47.7
     1.595              -54.44          33.36          44.86          51.13         -16.87         -11.24         -130.7          24.23          165.6          128.6          47.44
     1.636              -54.12          33.01          44.86          51.11          -16.8         -11.17         -129.6          24.46          165.3          128.2          47.11
     1.677              -53.71          32.58          44.86          51.09         -16.72         -11.08         -128.2          24.74          164.9          127.6          46.71
     1.717               -53.2          32.03          44.86          51.06         -16.62         -10.96         -126.4           25.1          164.4          126.9           46.2
     1.758              -52.56          31.33          44.87          51.03         -16.49         -10.82         -124.1          25.56          163.8          126.0          45.55
     1.799              -51.73          30.44          44.87          50.98         -16.32         -10.63         -121.2          26.15          163.0          124.8          44.72
      1.84              -50.67           29.3          44.87          50.93          -16.1         -10.39         -117.5           26.9          162.0          123.3          43.65
     1.881              -49.32          27.84          44.87          50.85         -15.83         -10.08         -112.7          27.86          160.7          121.4          42.29
     1.922              -47.61           26.0          44.88          50.76         -15.48         -9.692         -106.7          29.07          159.1          119.0          40.58
     1.963              -45.54          23.77          44.88          50.65         -15.06          -9.22         -99.44          30.55          157.1          116.1           38.5
